<?xml version="1.0" encoding="UTF-8"?>
<svg id="_Слой_2" data-name="Слой 2" xmlns="http://www.w3.org/2000/svg" viewBox="0 0 98 73.3">
  <defs>
    <style>
      .cls-1 {
        fill: #fff;
      }

      .cls-2 {
        fill: #fff584;
      }

      .cls-2, .cls-3 {
        fill-rule: evenodd;
      }

      .cls-3 {
        fill: #85754e;
      }
    </style>
  </defs>
  <g id="_Слой_1-2" data-name="Слой 1">
    <g>
      <path class="cls-3" d="M46.96,71.52c-18.71,1-21,3.63-25.79-1.47-2.34-2.81-3.71-5.46-5.21-8.87H0l4.29-23.29h6.1C9.59,20.02,19.84,7.39,36.22,1.89c26.31-7.58,53.44,8.31,52.8,35.99h4.68l4.29,23.29h-14.33c-9.47,18.9-19.98,9.97-36.71,10.34Z"/>
      <path class="cls-1" d="M92.26,39.68h-5.07c.08-1.3,.12-2.58,.12-3.81C87.31,17.01,70.43,1.67,49.69,1.67c-11.1,0-21.5,4.12-28.54,11.29-6.11,6.24-9.25,14.17-9.08,22.93,.03,1.25,.1,2.53,.21,3.79H5.74l-3.63,19.69h14.99c2.88,7.06,6.18,11.45,8.87,11.76,2.84,.33,7.83-.19,12.67-.7,3.87-.41,7.52-.79,9.93-.73,1.95,.04,4.94,.4,8.1,.77,4.09,.48,8.28,.98,11.35,.98,1.36,0,2.5-.1,3.32-.34,4.46-1.31,8.35-5.36,11.25-11.74h13.31l-3.63-19.69Z"/>
      <path class="cls-2" d="M13.57,39.75c-4.09-48.27,76.06-50.75,72.25,1.22h5.38l3.16,17.11h-12.59c-2.28,4.94-4.92,9.34-9.97,11.51-3.82,1.64-15.94-.91-23.21-1.18h-.55c-6.42,.06-19.83,2.39-22.71,1.18-.62-.37-1.02-.71-.92-.63-2.95-2.73-4.92-7.17-6.46-10.88H3.65l3.15-17.11h6.88l-.12-1.22h0Z"/>
      <path class="cls-3" d="M16.22,55.84c.62,.03,.95,.16,1.29,.05h.02c-1.35-2.19-1.34-8.62-1.73-10.27l-.09-.13-.16-.07c-.66-.04-4.1,.02-4.2,.03l-.17,.08-.09,.12-.06,.25c-.36,6.86-1.7,9.53-1.63,10h0s.03,.02,.03,.02c.06,.01,.03,0,.11,.01,.11,0,.32,0,.42-.02,.42-.04,.84-.08,1.45-.03,.27,.04,.66,.1,.91,0h0c-1.7-2.49,3.88-2.17,2.05-.09v.02s-.02,.02-.02,.02h0s.02,.03,.02,.03l.04,.02,.05,.03c.32,.06,.51,0,.92-.05,.03,0,.03-.02,.81-.02Zm-2.85-2.92c-.37-.03-.24,0-.56-.11l-.19-.14-.12-.19c-.33-1.29,.37-3.67,.56-4.1l.33-.24,.31,.13c.66,.82,.61,1.98,.61,3.96,0,.28-.25,.53-.17,.43-.31,.24-.47,.23-.77,.26h0Zm6.99,2.66c-.06,.1-.13,.19-.16,.29l.02,.02c.34,.1,1.34-.08,2.31,0,.4,.03,.67,.08,.84,.02h.02v-.04c-.56-1.69-.5,.85-.5-6.98v-.26c.08-.38,.09-.38,.22-.59l.14-.13c.25-.13,.41-.17,.81-.09,.33,.11,.36,.17,.59,.43,.1,.1,.02,.03,.12,.09l.06,.02c.1,0,.18,.02,.26-.04h0c.01-.12,0-.2-.01-.31-.3-2.5,.08-2.08-.06-2.52h0s-.02-.02-.03-.03c-.24-.09-1.13-.05-1.38,0-.19,.03-.09,.02-.43,.04-.73,.01-1.45,.02-1.35,.02-2.26-.02-3.03-.22-3.18-.02-.03,.19,.04,.18,.04,1.15,0,.37,0,.57-.07,.93-.03,.19-.1,.52-.07,.71v.03s.02,.01,.02,.01h.02c.1,.05,.2,.05,.3,.01,.2-.15,.28-.49,.94-.5,.34,.02,.33,.04,.52,.14l.12,.12c.16,.32,.13,.67,.13,.56,0,6.53,.09,6.36-.22,6.93h0Zm13.3,.25c-.47-1.42-.37,.64-.37-7.94v-.23c.05-.71,.22-1.57,.6-2.16h0s0-.03,0-.03v-.02s-.01,0-.01,0c-.31-.13-1.48,.03-3.81,.01-1.4-.03-2.66-.11-2.79-.02,0,.02,0,.01,0,.07h0c.69,1.44,.1,7.37-.18,7.84l-.1,.09-.12,.06c-.34,.05-.42-.06-.53-.15l-.08-.14-.02-.11c-.1,0-.05,0-.15,0h-.01s0,.01,0,.01c-.02,.11,.08,.6,0,1.78-.03,.45-.03,.47-.04,.76v.07s.01,.05,.01,.05l.02,.05,.05,.06c.17,.1,1.2,.44,2.2-.12,1.08-1.11,.76-6.91,1.39-8l.16-.15,.21-.1c.93-.11,.88,.68,.87,.58,0,8.15,.07,5.96-.54,7.79v.04c3.31,0,3.34-.04,3.24-.02,0-.03,0-.03-.01-.07h0Zm8.19,.02c.16,.02,.44,.04,.62,.07,.19,.01,.34,.03,.51-.04h.02c-1.27-1.92-1.37-8.72-1.73-10.27l-.09-.13-.16-.07c-.1,0-4.1,.02-4.2,.03l-.18,.08-.09,.12c-.2,.89,.15,.37-.54,5-.91,6.11-1.96,5.38-.06,5.21,1.11-.05,1.47,.17,1.85,0h0c-.12-.19-.11-.15-.24-.33-.99-1.45,2.85-2.27,2.62-.26-.13,.36-.14,.27-.34,.5v.02s-.01,.02-.01,.02h0c.27,.24,.97-.06,2,.02Zm-3-2.93c-.38-.03-.25,0-.56-.11l-.19-.14-.12-.19c-.23-.88,.14-3.19,.56-4.1l.33-.24,.31,.13c.89,1.11,.62,4.06,.53,4.27l-.09,.13c-.28,.22-.37,.23-.77,.26h0Zm8.75,2.94h0c-.05-.19-.81-1.29-.41-4.88,.11-.51,.05-.34,.24-.76l.23-.25,.3-.14c.42-.04,.27-.04,.67,0l.27,.11,.21,.18c.45,.78,.29,4.09,.12,4.77-.23,.62-.24,.52-.27,1v.02c.26,.11,1.73-.13,2.37,.02,.2,.02,.75,.05,.94-.05h.01s0,0,0,0c0-.03,0-.02,0-.05v-.05c-.72-1.71-.6-2.88-.6-2.78,0-5.86-.08-5.87,.59-7.37v-.08s.01-.03,.01-.03c0-.01,0,0-.03-.04-.31-.17-.37,.05-2.7-.04-.14-.01-.6-.05-.76,.05h0s0,.01,0,.01c.03,.04,.06,.07,.11,.13,1.44,1.72-.6,2.65-1.49,1.64l-.1-.23c-.12-1.03,.47-1.28,.5-1.57-.09-.05-3.28-.1-3.52,0l-.02,.02s0,0,0,.01c-.08,.42,.45,.55,.53,2.09,0,.1,.02,6.31-.04,6.85-.08,.68-.42,1.33-.46,1.44v.02s0,0,0,0h0s.02,.01,.02,.01c.11,.04,1.45-.04,1.35-.04,.28,0,1.71,.12,1.95,0Zm7.76-.28c-.14,.23-.07,.1-.15,.26v.03s.02,.02,.02,.02c.48,.15,.87-.11,2.39,0,.28,.02,.62,.08,.77,0h0c-.02-.3-.4-.33-.5-1.58,0-.1-.15-5.7,.21-6.28l.14-.13,.16-.08c1.18-.25,1.3,.87,1.68,.48h0s0-.06,0-.06c-.17-3.19,0-2.71-.11-2.8-.27-.1-1.08-.04-1.54,.03-.55,.04-1.74,.04-1.63,.04-2.23-.02-2.87-.21-3.17-.04h0s0,.02,0,.02c-.02,.19,.13,1.19,0,1.98-.04,.24-.14,.7-.08,.85h.01s.01,.02,.01,.02c.57,.22,.39-.77,1.62-.45l.15,.09,.11,.12c.12,.24,.33,6.71-.09,7.49h0Zm11.61-4.65c-.17,2.64,.3,3.06-.54,4.95h.01c.38,.13,1.6-.14,2.17,.01,.12,.03,.88,.05,1.1,.02h.02c-.18-.64-.42-.3-.49-2.18v-.45c0-9.56,.05-6.35,.41-7.88-.06,0-.09,0-.14,0,0,0-.71,0-.91,.02-.3,.04-.37,.04-.5,.04-.97,.01-1.16-.1-1.68-.05h0c.93,1.03,.05,1.97-.78,2.88-.43,.47-.61,.73-1.08,1.07l-.33,.06-.13-.31c0-3.05-.1-2.79,.6-3.69h0c-.27-.03-1.57,.13-2.59,0-.18-.01-.59-.02-.73,0,.53,.67,.78,8.16-.02,10.47v.02s.02,.01,.02,.01c.31,.08,1.39-.04,1.29-.04,1.5,0,1.63,.15,2.01,.02l.02-.02h0c-.04-.26-1.02-1.15-.42-2.71,.61-1.19,2.06-2.81,2.51-2.67l.08,.05c.11,.13,.1,.15,.1,.38h0Zm11.87-5.53c-1.02-.03-1.69,.11-3.53,.07-2.71-.07-2.73-.11-2.92-.04h0c-.07,.49,.22,.81,.31,1.82,.05,1.97-.59,7.3-.9,7.79-.26,.29-.54,.26-.82,.34h-.01c0,.5,.26,.48,0,1.66,0,.03,0,.02,0,.05h0s.02,.03,.02,.03c1.07,.54,.19-2.02,6.57-1.03,.97,.21,.96,.65,1.37,1.03l.11,.05,.18,.03c.15-.02,.07,0,.18-.03l.03-.02h.01s.01-.04,.01-.04c0-.03-.02-1.99,0-1.66-.23-.08-.5-.05-.78-.31l-.08-.13c-.14-.48-.21-7.65,.01-8.57,.12-.49,.29-.78,.39-1h0c-.1-.04-.06-.03-.16-.03h0Zm-2.7,8.81l-.09,.18-.15,.15c-.47,.25-1.1,.24-1.55,.02l-.16-.15-.11-.21c-.02-.12,.57-6.09,.77-6.55l.16-.16,.21-.08c.43-.04,.7-.03,.92,.33,.13,.44,.04,6.29,0,6.48h0Zm11.77,1.69c.23,.03,.42,.06,.64-.01h.02c-1.3-2.3-1.38-8.85-1.73-10.27l-.09-.13-.16-.07c-.1,0-3.62-.03-4.2,.03l-.17,.08-.09,.12-.05,.25c-.79,12.08-3.37,9.85,.23,9.96,.42,.03,.78,.13,1.07,0h0c-.13-.26-.16-.12-.33-.51-.29-1.01,1.29-1.68,2.41-.97l.15,.15c.3,.5,.23,.77-.19,1.25v.02s-.01,.02-.01,.02c.2,.29,.63-.12,2.5,.07Zm-3.5-2.98c-.38-.03-.25,0-.56-.11l-.19-.14-.12-.19c-.16-.66,0-2.9,.56-4.1l.33-.24,.31,.13c.76,.96,.7,3.88,.53,4.27l-.09,.13c-.31,.23-.38,.23-.78,.26h0ZM27.04,32.04c-.69-.05-1.5,.77-2.08-.16-.58-.93-.66-3.5-.8-4.44-.13-.94-.79-.51-.98-1.5-.19-.99-.09-3.53-.22-4.46-.47,0-.41,.24-.91-.48-.3-.88-.01-1.42,.91-1.58,.39-.06,.91,.31,1.24-.03,1.18-7.03,11.55-15.45,22.79-12.97,2.62-.01,4.87-.06,6.61-.34,19.78,3.44,27.76,20.44,18.88,30.42,.22,1.28-.99,2.06-1.65,2.25-.66,.19-1.73,.16-2.65,.04-2.27,2.25-11.29,2.81-17.96,2.06-.24-.03-.4-.51-.64-.59,2.89-1.71,5.12-.64,4.76-1.03-.79-1.01-2.91-4.86-2.79-5.21,.11-.35,.92,.68,2.27-.76,1.34-1.44,3.53-4.67,4.82-6.36,1.29-1.69,.62-2.82,.69-3.08,.08-.26,0-.3,.84,.2,.84,.5,2.76,2.54,3.84,2.79,1.08,.25,.17-1.3-.32-1.97-.49-.68-2.55-2-3.87-1.99-1.32,0-3.85,5.84-7.29,9.33-3.45,3.5-7.22,4.63-12.35,7.62l-10.46,.09c.21-2.17,4.18-.79,5.18-1.4s10.76-10.02,8.96-15.42c-1.8-5.39-10.84-5.25-14.39-.86,1.2,1.98-.64,4.82-.8,6.25-.16,1.43,.13,1.66-.16,2.31-.29,.65-.96,.88-1.44,1.31h0Z"/>
    </g>
  </g>
</svg>